<svg width="903" height="843" viewBox="0 0 903 843" fill="none" xmlns="http://www.w3.org/2000/svg">
<path d="M323.516 509.77C297.339 586.611 415.377 549.979 392.531 492.83C381.592 465.466 344.834 447.625 316.416 449.564C289.577 451.395 277.509 493.772 276.188 516.762C270.781 610.879 405.656 603.229 455.702 560.9C502.718 521.134 491.638 454.747 448.191 417.084C418.93 391.718 345.05 360.342 305.611 368.192C185.739 392.05 138.603 513.938 219.44 611.721C286.977 693.414 403.957 684.748 491.82 650.896C572.135 619.952 648.263 592.245 659.471 497.084C666.02 441.484 590.409 388.322 550.923 358.658C498.517 319.288 425.349 312.77 366.31 286.137C330.903 270.164 291.073 239.978 298.866 195.743C311.803 122.308 352.303 78.467 428.381 83.1958" stroke="#1E1E1E" stroke-width="30" stroke-linecap="round"/>
</svg>
