<svg width="492" height="604" viewBox="0 0 492 604" fill="none" xmlns="http://www.w3.org/2000/svg">
<path d="M150.223 432.694C124.046 509.535 242.085 472.903 219.239 415.754C208.3 388.389 171.542 370.549 143.124 372.488C116.285 374.319 104.216 416.696 102.896 439.686C97.4891 533.803 232.363 526.153 282.41 483.824C329.426 444.058 318.345 377.67 274.899 340.008C245.638 314.642 171.757 283.266 132.319 291.116C12.4468 314.974 -34.6889 436.862 46.1482 534.645C113.685 616.338 230.665 607.672 318.528 573.82C398.842 542.876 474.971 515.169 486.179 420.008C492.727 364.408 417.117 311.245 377.631 281.582C325.225 242.212 252.057 235.694 193.018 209.061C157.611 193.088 117.78 162.902 125.573 118.667C138.511 45.2321 179.011 1.39095 255.089 6.11978" stroke="#1E1E1E" stroke-width="10" stroke-linecap="round"/>
</svg>
